<?xml version="1.0" standalone="no"?>
<!DOCTYPE svg PUBLIC "-//W3C//DTD SVG 20010904//EN"
 "http://www.w3.org/TR/2001/REC-SVG-20010904/DTD/svg10.dtd">
<svg version="1.0" xmlns="http://www.w3.org/2000/svg"
 width="300.000000pt" height="225.000000pt" viewBox="0 0 300.000000 225.000000"
 preserveAspectRatio="xMidYMid meet">
<metadata>
Created by potrace 1.10, written by Peter Selinger 2001-2011
</metadata>
<g transform="translate(0.000000,225.000000) scale(0.100000,-0.100000)"
fill="#000000" stroke="none">
<path d="M1362 1785 c-134 -29 -312 -143 -393 -252 -138 -184 -172 -430 -88
-641 153 -387 583 -553 942 -365 82 43 178 129 230 206 50 72 96 216 102 314
l4 78 -10 -60 c-36 -219 -83 -309 -227 -438 -17 -15 -33 -27 -36 -27 -2 0 -38
-20 -80 -45 -48 -28 -82 -42 -92 -38 -13 5 -15 3 -9 -7 6 -10 4 -12 -9 -7 -10
4 -23 7 -29 8 -7 0 13 8 44 18 61 20 168 80 190 108 8 9 -2 5 -21 -9 -134 -99
-342 -142 -495 -102 -115 29 -202 80 -290 168 -92 92 -136 166 -165 282 -73
284 71 583 340 707 98 45 243 67 345 52 44 -6 89 -17 100 -23 11 -7 45 -21 76
-32 75 -27 180 -117 239 -203 50 -74 86 -169 107 -282 l12 -70 -5 70 c-10 136
-68 266 -167 371 -121 130 -261 193 -444 200 -57 3 -103 0 -103 -4 0 -5 -12
-9 -27 -9 -35 1 -131 -35 -198 -73 -72 -41 -154 -114 -198 -176 -43 -60 -58
-71 -30 -22 53 93 226 229 343 269 91 30 234 37 334 15 229 -51 421 -230 492
-458 10 -32 19 -56 22 -53 6 6 -36 132 -63 184 -82 163 -248 297 -423 342 -89
22 -226 24 -320 4z m308 -1286 c11 -8 6 -9 -20 -4 -28 5 -32 4 -20 -5 12 -9 8
-10 -19 -6 -18 3 -59 7 -90 8 -51 2 -49 2 24 8 44 3 87 7 95 8 8 1 22 -3 30
-9z"/>
<path d="M1458 1322 c-33 -20 -38 -37 -38 -134 0 -77 0 -78 25 -78 16 0 25 6
25 15 0 10 11 15 35 15 22 0 34 -4 33 -12 -2 -7 7 -14 20 -16 21 -3 22 0 22
66 0 106 -7 127 -46 146 -41 19 -41 19 -76 -2z m112 -139 c0 -35 -4 -63 -10
-63 -5 0 -10 11 -10 25 0 23 -4 25 -44 25 -38 0 -45 -3 -50 -25 -12 -46 -26
-25 -26 38 0 61 1 64 32 79 29 13 36 13 70 0 l38 -15 0 -64z"/>
<path d="M1053 1060 c-13 -5 -23 -14 -23 -19 0 -6 7 -8 15 -5 12 5 15 -5 15
-60 0 -48 4 -66 13 -66 24 0 97 89 97 119 0 34 -66 52 -117 31z m81 -6 c25
-10 19 -46 -15 -87 -17 -20 -34 -37 -38 -37 -12 0 -8 114 4 122 12 9 28 10 49
2z"/>
<path d="M1463 1060 c-13 -5 -23 -14 -23 -19 0 -6 7 -8 15 -5 12 5 15 -5 15
-60 0 -50 3 -66 14 -66 17 0 74 64 87 98 19 49 -42 78 -108 52z m85 -12 c7 -7
12 -19 12 -28 0 -17 -57 -90 -70 -90 -12 0 -7 113 5 122 15 11 40 9 53 -4z"/>
<path d="M1242 1033 c-7 -3 -19 -18 -28 -35 -19 -36 -5 -58 35 -58 15 0 33 -6
40 -12 12 -11 13 -9 6 7 -16 43 -16 52 -1 58 12 5 16 0 16 -18 0 -14 6 -25 14
-25 9 0 12 8 8 25 -3 16 0 25 9 25 9 0 10 3 3 10 -7 7 -26 4 -60 -7 -29 -10
-42 -19 -31 -21 24 -5 22 -32 -3 -32 -33 0 -37 30 -7 56 26 22 25 36 -1 27z"/>
<path d="M1610 1021 c-26 -7 -48 -57 -37 -85 9 -23 44 -20 57 4 7 14 7 20 0
20 -5 0 -10 -4 -10 -10 0 -5 -7 -10 -15 -10 -25 0 -17 25 13 37 l27 11 -28 1
c-36 1 -25 21 12 21 24 0 27 -4 29 -37 3 -41 16 -61 26 -44 4 6 2 11 -3 11 -6
0 -11 11 -11 25 0 28 32 50 58 40 14 -5 10 -10 -18 -25 -19 -11 -28 -19 -19
-20 23 0 71 39 63 52 -4 6 -25 8 -49 6 -23 -3 -49 -2 -56 2 -8 4 -25 4 -39 1z"/>
<path d="M1776 1000 c-14 -17 -23 -37 -20 -45 13 -32 84 -7 84 30 0 8 7 11 20
8 13 -3 20 -14 20 -29 0 -15 6 -24 15 -24 17 0 20 16 5 25 -23 14 -9 35 23 35
34 0 50 7 42 20 -2 4 -27 2 -55 -4 -38 -8 -56 -7 -70 2 -28 17 -35 15 -64 -18z
m54 -3 c0 -8 -9 -22 -20 -32 -16 -14 -23 -16 -32 -7 -9 9 -7 16 7 32 21 23 45
26 45 7z"/>
<path d="M1177 1013 c-13 -12 -7 -63 6 -63 9 0 12 11 9 35 -4 37 -5 39 -15 28z"/>
<path d="M1350 970 c0 -5 18 -10 39 -10 22 0 43 5 46 10 4 6 -12 10 -39 10
-25 0 -46 -4 -46 -10z"/>
</g>
</svg>
